<svg width="20" height="20" viewBox="0 0 20 20" fill="none" xmlns="http://www.w3.org/2000/svg">
<path d="M4.44176 16.1836C4.3501 16.1836 4.2501 16.1586 4.16676 16.1169L2.31676 15.1919C2.10843 15.0836 1.9751 14.8669 1.9751 14.6336V12.3169C1.9751 11.9752 2.25843 11.6919 2.6001 11.6919C2.94176 11.6919 3.2251 11.9752 3.2251 12.3169V14.2419L4.7251 15.0002C5.03343 15.1502 5.15843 15.5252 5.0001 15.8336C4.89176 16.0502 4.6751 16.1836 4.44176 16.1836Z" fill="white"/>
<path d="M10 18.9583C9.95005 18.9583 9.90005 18.9499 9.85838 18.9416C9.80838 18.9333 9.75838 18.9083 9.70838 18.8833L7.86672 17.9666C7.55838 17.8083 7.43338 17.4333 7.58338 17.1249C7.74172 16.8166 8.11672 16.6916 8.42505 16.8416L9.37505 17.3166V16.0166C9.37505 15.6749 9.65838 15.3916 10 15.3916C10.3417 15.3916 10.625 15.6749 10.625 16.0166V17.3166L11.575 16.8416C11.8834 16.6916 12.2584 16.8166 12.4167 17.1249C12.575 17.4333 12.45 17.8083 12.1334 17.9666L10.2917 18.8833C10.2417 18.9083 10.1917 18.9249 10.1417 18.9416C10.0917 18.9499 10.05 18.9583 10 18.9583Z" fill="white"/>
<path d="M15.5585 16.1835C15.3335 16.1835 15.1085 16.0585 15.0001 15.8419C14.8418 15.5335 14.9668 15.1585 15.2835 15.0002L16.7918 14.2502V12.3252C16.7918 11.9835 17.0751 11.7002 17.4168 11.7002C17.7585 11.7002 18.0418 11.9835 18.0418 12.3252V14.6419C18.0418 14.8752 17.9085 15.0919 17.7001 15.2002L15.8335 16.1169C15.7418 16.1585 15.6501 16.1835 15.5585 16.1835Z" fill="white"/>
<path d="M10 12.0167C9.65838 12.0167 9.37505 11.7334 9.37505 11.3917V9.4667L7.86672 8.7167C7.55838 8.55837 7.43338 8.18337 7.58338 7.87504C7.74172 7.5667 8.11672 7.4417 8.42505 7.5917L10 8.37504L11.575 7.5917C11.8834 7.4417 12.2584 7.55837 12.4167 7.87504C12.575 8.18337 12.45 8.55837 12.1334 8.7167L10.625 9.4667V11.3917C10.625 11.7334 10.3417 12.0167 10 12.0167Z" fill="white"/>
<path d="M2.5918 8.30819C2.25013 8.30819 1.9668 8.02485 1.9668 7.68319V5.38319V5.37485C1.9668 5.32485 1.97513 5.27485 1.98346 5.23319C2.00013 5.15819 2.02513 5.09985 2.05846 5.04152C2.08346 4.99985 2.1168 4.96652 2.15013 4.93319C2.18346 4.89985 2.22513 4.86652 2.2668 4.84152C2.28346 4.83319 2.30846 4.81652 2.32513 4.80819L4.1668 3.88319C4.47513 3.73319 4.85013 3.85819 5.00013 4.16652C5.15846 4.47485 5.03346 4.84985 4.72513 4.99985L3.9918 5.36652L4.72513 5.73319C5.03346 5.89152 5.15846 6.26652 5.00013 6.57485C4.85013 6.88319 4.47513 7.00819 4.1668 6.85819L3.2168 6.38319V7.68319C3.2168 8.03319 2.9418 8.30819 2.5918 8.30819Z" fill="white"/>
<path d="M11.85 3.21663C11.7583 3.21663 11.6583 3.19163 11.575 3.14997L10 2.36663L8.425 3.14997C8.11667 3.3083 7.74167 3.1833 7.59167 2.87497C7.43334 2.56663 7.55834 2.19163 7.86667 2.0333L9.71667 1.1083C9.89167 1.01663 10.1 1.01663 10.275 1.1083L12.125 2.0333C12.4333 2.19163 12.5583 2.56663 12.4083 2.87497C12.3 3.09163 12.0833 3.21663 11.85 3.21663Z" fill="white"/>
<path d="M17.4082 8.30819C17.0665 8.30819 16.7832 8.02485 16.7832 7.68319V6.38319L15.8332 6.85819C15.5249 7.00819 15.1499 6.88319 14.9999 6.57485C14.8415 6.26652 14.9665 5.89152 15.2832 5.73319L16.0165 5.36652L15.2749 4.99985C14.9665 4.84985 14.8415 4.47485 14.9999 4.16652C15.1582 3.85819 15.5249 3.73319 15.8332 3.88319L17.6749 4.79985C17.6915 4.80819 17.7165 4.81652 17.7332 4.83319C17.7832 4.85819 17.8249 4.89985 17.8665 4.94152C17.8915 4.97485 17.9165 5.00819 17.9415 5.04152C17.9749 5.09985 17.9999 5.15819 18.0165 5.22485C18.0249 5.27485 18.0332 5.32485 18.0332 5.36652V5.37485V7.67485C18.0332 8.03319 17.7499 8.30819 17.4082 8.30819Z" fill="white"/>
</svg>
