<svg width="20" height="20" viewBox="0 0 20 20" fill="none" xmlns="http://www.w3.org/2000/svg">
<path d="M6.875 4.7915C6.53333 4.7915 6.25 4.50817 6.25 4.1665V1.6665C6.25 1.32484 6.53333 1.0415 6.875 1.0415C7.21667 1.0415 7.5 1.32484 7.5 1.6665V4.1665C7.5 4.50817 7.21667 4.7915 6.875 4.7915Z" fill="white"/>
<path d="M13.125 4.7915C12.7833 4.7915 12.5 4.50817 12.5 4.1665V1.6665C12.5 1.32484 12.7833 1.0415 13.125 1.0415C13.4667 1.0415 13.75 1.32484 13.75 1.6665V4.1665C13.75 4.50817 13.4667 4.7915 13.125 4.7915Z" fill="white"/>
<path d="M10 11.7415C10.4333 11.7415 10.75 11.4832 10.75 11.0748C10.75 10.6582 10.4333 10.4165 10 10.4165C9.56667 10.4165 9.25 10.6582 9.25 11.0748C9.25 11.4832 9.56667 11.7415 10 11.7415Z" fill="white"/>
<path d="M9.99981 14.1667C10.5245 14.1667 10.9498 13.8197 10.9498 13.3917C10.9498 12.9637 10.5245 12.6167 9.99981 12.6167C9.47513 12.6167 9.0498 12.9637 9.0498 13.3917C9.0498 13.8197 9.47513 14.1667 9.99981 14.1667Z" fill="white"/>
<path d="M16.3085 3.74984C15.7585 3.3415 14.9668 3.73317 14.9668 4.42484V4.50817C14.9668 5.48317 14.2668 6.38317 13.2918 6.48317C12.1668 6.59984 11.2168 5.7165 11.2168 4.6165V3.74984C11.2168 3.2915 10.8418 2.9165 10.3835 2.9165H9.61683C9.1585 2.9165 8.7835 3.2915 8.7835 3.74984V4.6165C8.7835 5.27484 8.44183 5.85817 7.92516 6.18317C7.85016 6.23317 7.76683 6.27484 7.6835 6.3165C7.6085 6.35817 7.52516 6.3915 7.4335 6.4165C7.3335 6.44984 7.22516 6.47484 7.1085 6.48317C6.97516 6.49984 6.84183 6.49984 6.7085 6.48317C6.59183 6.47484 6.4835 6.44984 6.3835 6.4165C6.30016 6.3915 6.21683 6.35817 6.1335 6.3165C6.05016 6.27484 5.96683 6.23317 5.89183 6.18317C5.36683 5.8165 5.0335 5.18317 5.0335 4.50817V4.42484C5.0335 3.78317 4.35016 3.39984 3.8085 3.67484C3.80016 3.68317 3.79183 3.68317 3.7835 3.6915C3.75016 3.70817 3.72516 3.72484 3.69183 3.74984C3.66683 3.77484 3.6335 3.7915 3.6085 3.8165C3.37516 3.99984 3.16683 4.20817 2.99183 4.43317C2.90016 4.53317 2.82516 4.6415 2.7585 4.74984C2.75016 4.75817 2.74183 4.7665 2.7335 4.78317C2.6585 4.8915 2.59183 5.0165 2.5335 5.13317C2.51683 5.14984 2.5085 5.15817 2.5085 5.17484C2.4585 5.27484 2.4085 5.37484 2.37516 5.48317C2.35016 5.52484 2.34183 5.55817 2.32516 5.59984C2.27516 5.72484 2.24183 5.84984 2.2085 5.97484C2.17516 6.0915 2.15016 6.2165 2.1335 6.3415C2.11683 6.43317 2.1085 6.52484 2.10016 6.62484C2.09183 6.7415 2.0835 6.85817 2.0835 6.97484V14.2748C2.0835 16.5165 3.90016 18.3332 6.14183 18.3332H13.8585C16.1002 18.3332 17.9168 16.5165 17.9168 14.2748V6.97484C17.9168 5.64984 17.2835 4.4915 16.3085 3.74984ZM10.0002 15.2082C8.7085 15.2082 7.91683 14.5665 7.91683 13.5332C7.91683 12.9665 8.2085 12.4748 8.71683 12.1832C8.35016 11.9248 8.1085 11.5415 8.1085 11.0165C8.1085 9.93317 8.97516 9.37484 10.0002 9.37484C11.0252 9.37484 11.8835 9.93317 11.8835 11.0165C11.8835 11.5415 11.6502 11.9248 11.2752 12.1832C11.7918 12.4748 12.0835 12.9665 12.0835 13.5332C12.0835 14.5665 11.2835 15.2082 10.0002 15.2082Z" fill="white"/>
</svg>
