<svg width="20" height="20" viewBox="0 0 20 20" fill="none" xmlns="http://www.w3.org/2000/svg">
<path d="M2.15002 7.85005C2.08335 7.85005 2.00835 7.84172 1.94168 7.81672C1.61668 7.70005 1.45002 7.34172 1.55835 7.01672C2.11668 5.45005 3.08335 4.07505 4.37502 3.03339C4.64168 2.81672 5.03335 2.85839 5.25002 3.12505C5.46668 3.39172 5.42502 3.78339 5.15835 4.00839C4.05835 4.90005 3.21668 6.08339 2.74168 7.43339C2.65002 7.69172 2.40835 7.85005 2.15002 7.85005Z" fill="white"/>
<path d="M2.14984 13.4C1.8915 13.4 1.64984 13.2417 1.55817 12.9833C1.2165 12.0167 1.0415 11.0083 1.0415 10C1.0415 9.65833 1.32484 9.375 1.6665 9.375C2.00817 9.375 2.2915 9.65833 2.2915 10C2.2915 10.8667 2.4415 11.7333 2.7415 12.5667C2.85817 12.8917 2.68317 13.25 2.35817 13.3667C2.2915 13.3917 2.2165 13.4 2.14984 13.4Z" fill="white"/>
<path d="M10 18.9581C9.11667 18.9581 8.24167 18.8248 7.39167 18.5665C7.05834 18.4665 6.87501 18.1165 6.97501 17.7831C7.07501 17.4498 7.42501 17.2665 7.75834 17.3665C8.48334 17.5915 9.24167 17.6998 10 17.6998C14.25 17.6998 17.7083 14.2415 17.7083 9.99146C17.7083 9.55812 17.6667 9.10812 17.5833 8.63312C17.525 8.29146 17.75 7.96646 18.0917 7.90812C18.425 7.84979 18.7583 8.07479 18.8167 8.41646C18.9167 8.96646 18.9667 9.48312 18.9667 9.99979C18.9583 14.9415 14.9417 18.9581 10 18.9581Z" fill="white"/>
<path d="M4.76684 17.0835C4.62518 17.0835 4.49184 17.0419 4.37518 16.9419C3.90018 16.5585 3.51684 16.1919 3.19184 15.8169C2.96684 15.5585 3.00018 15.1585 3.25851 14.9335C3.52518 14.7085 3.91684 14.7419 4.14184 15.0002C4.41684 15.3169 4.75018 15.6335 5.15851 15.9669C5.42518 16.1835 5.46684 16.5752 5.25018 16.8419C5.13351 17.0002 4.95018 17.0835 4.76684 17.0835Z" fill="white"/>
<path d="M16.8668 5.90817C16.6668 5.90817 16.4752 5.8165 16.3502 5.63317C14.9168 3.5415 12.5335 2.2915 10.0002 2.2915C9.24184 2.2915 8.4835 2.39984 7.7585 2.62484C7.4335 2.72484 7.0835 2.5415 6.97517 2.20817C6.86684 1.87484 7.0585 1.52484 7.39184 1.42484C8.24184 1.17484 9.11684 1.0415 10.0002 1.0415C12.9502 1.0415 15.7085 2.49984 17.3835 4.93317C17.5752 5.2165 17.5085 5.60817 17.2252 5.79984C17.1168 5.87484 16.9918 5.90817 16.8668 5.90817Z" fill="white"/>
<path d="M13.3585 5.41672C13.0835 5.20839 12.5835 5.00006 11.7835 5.21673L9.12516 5.93339C8.3585 6.15006 7.8585 6.80006 7.8585 7.60006V8.96673V11.1167C7.64183 11.0334 7.4085 10.9834 7.1585 10.9834C6.0835 10.9834 5.2085 11.8584 5.2085 12.9334C5.2085 14.0084 6.0835 14.8834 7.1585 14.8834C8.22516 14.8834 9.0835 14.0251 9.10016 12.9667C9.10016 12.9584 9.1085 12.9501 9.1085 12.9334V9.44173L12.7085 8.45839V10.2334C12.4918 10.1501 12.2585 10.1001 12.0085 10.1001C10.9335 10.1001 10.0585 10.9751 10.0585 12.0501C10.0585 13.1251 10.9335 14.0001 12.0085 14.0001C13.0835 14.0001 13.9585 13.1251 13.9585 12.0501V7.64172V6.87506C13.9585 6.20839 13.7585 5.71672 13.3585 5.41672ZM7.1585 13.6334C6.77516 13.6334 6.4585 13.3167 6.4585 12.9334C6.4585 12.5501 6.77516 12.2334 7.1585 12.2334C7.54183 12.2334 7.8585 12.5501 7.8585 12.9334C7.8585 13.3167 7.54183 13.6334 7.1585 13.6334ZM12.0085 12.7501C11.6252 12.7501 11.3085 12.4334 11.3085 12.0501C11.3085 11.6667 11.6252 11.3501 12.0085 11.3501C12.3918 11.3501 12.7085 11.6667 12.7085 12.0501C12.7085 12.4334 12.3918 12.7501 12.0085 12.7501Z" fill="white"/>
</svg>
