<svg width="20" height="20" viewBox="0 0 20 20" fill="none" xmlns="http://www.w3.org/2000/svg">
<path d="M11.7749 9.44994C12.0999 8.08328 10.9083 6.89161 9.54161 7.21661C8.89994 7.37494 8.37494 7.89994 8.21661 8.54161C7.89161 9.90828 9.08328 11.0999 10.4499 10.7749C11.0999 10.6166 11.6249 10.0916 11.7749 9.44994Z" fill="#0F0F0F"/>
<path d="M5.01647 14.9748C4.86647 14.9748 4.70814 14.9165 4.59147 14.8082C2.9748 13.3082 2.0498 11.1915 2.0498 8.9915C2.0498 4.60817 5.61647 1.0415 9.9998 1.0415C14.3831 1.0415 17.9498 4.60817 17.9498 8.9915C17.9498 11.2082 17.0581 13.2582 15.4415 14.7832C15.1915 15.0165 14.7915 15.0082 14.5581 14.7582C14.3248 14.5082 14.3331 14.1082 14.5831 13.8748C15.9498 12.5915 16.6998 10.8665 16.6998 8.99984C16.6998 5.30817 13.6915 2.29984 9.9998 2.29984C6.30814 2.29984 3.2998 5.30817 3.2998 8.99984C3.2998 10.8832 4.05814 12.6165 5.44147 13.8998C5.69147 14.1332 5.70814 14.5332 5.4748 14.7832C5.3498 14.9082 5.18314 14.9748 5.01647 14.9748Z" fill="#0F0F0F"/>
<path d="M13.3331 12.7498C13.1831 12.7498 13.0248 12.6915 12.9081 12.5831C12.6581 12.3498 12.6414 11.9498 12.8831 11.6998C13.5748 10.9665 13.9581 9.9998 13.9581 8.9998C13.9581 6.81647 12.1831 5.0498 10.0081 5.0498C7.83311 5.0498 6.05811 6.8248 6.05811 8.9998C6.05811 10.0081 6.44144 10.9665 7.13311 11.6998C7.36644 11.9498 7.35811 12.3498 7.10811 12.5831C6.85811 12.8248 6.45811 12.8081 6.22477 12.5581C5.31644 11.5915 4.80811 10.3248 4.80811 8.9998C4.80811 6.13314 7.14144 3.7998 10.0081 3.7998C12.8748 3.7998 15.2081 6.13314 15.2081 8.9998C15.2081 10.3248 14.7081 11.5915 13.7914 12.5581C13.6664 12.6831 13.4998 12.7498 13.3331 12.7498Z" fill="#0F0F0F"/>
<path d="M8.5834 13.8833L7.3834 15.375C6.4334 16.5667 7.2834 18.3333 8.80007 18.3333H11.1917C12.7167 18.3333 13.5667 16.5667 12.6084 15.3833L11.4084 13.8917C10.6917 12.975 9.3084 12.975 8.5834 13.8833Z" fill="#0F0F0F"/>
</svg>
