<svg width="20" height="20" viewBox="0 0 20 20" fill="none" xmlns="http://www.w3.org/2000/svg">
<path d="M12.4414 2.08317V6.99984C12.4414 7.3665 12.0081 7.54984 11.7414 7.30817L10.2831 5.9665C10.1248 5.8165 9.87477 5.8165 9.71644 5.9665L8.25811 7.29984C7.99144 7.54984 7.55811 7.35817 7.55811 6.99984V2.08317C7.55811 1.84984 7.74144 1.6665 7.97477 1.6665H12.0248C12.2581 1.6665 12.4414 1.84984 12.4414 2.08317Z" fill="#0F0F0F"/>
<path d="M14.15 1.7169C13.9083 1.68357 13.6917 1.8919 13.6917 2.13357V7.15023C13.6917 7.78357 13.3167 8.35857 12.7333 8.6169C12.15 8.8669 11.475 8.75857 11.0083 8.32523L10.2833 7.65856C10.125 7.50856 9.88333 7.50856 9.71667 7.65856L8.99167 8.32523C8.69167 8.60857 8.3 8.75023 7.90833 8.75023C7.69167 8.75023 7.475 8.70857 7.26667 8.6169C6.68333 8.35857 6.30833 7.78357 6.30833 7.15023V2.13357C6.30833 1.8919 6.09167 1.68357 5.85 1.7169C3.51667 2.00857 2.5 3.58357 2.5 5.83357V14.1669C2.5 16.6669 3.75 18.3336 6.66667 18.3336H13.3333C16.25 18.3336 17.5 16.6669 17.5 14.1669V5.83357C17.5 3.58357 16.4833 2.00857 14.15 1.7169ZM14.5833 15.6252H7.5C7.15833 15.6252 6.875 15.3419 6.875 15.0002C6.875 14.6586 7.15833 14.3752 7.5 14.3752H14.5833C14.925 14.3752 15.2083 14.6586 15.2083 15.0002C15.2083 15.3419 14.925 15.6252 14.5833 15.6252ZM14.5833 12.2919H11.0417C10.7 12.2919 10.4167 12.0086 10.4167 11.6669C10.4167 11.3252 10.7 11.0419 11.0417 11.0419H14.5833C14.925 11.0419 15.2083 11.3252 15.2083 11.6669C15.2083 12.0086 14.925 12.2919 14.5833 12.2919Z" fill="#0F0F0F"/>
</svg>
